<svg width="94" height="81" viewBox="0 0 94 81" fill="none" xmlns="http://www.w3.org/2000/svg">
<path d="M35.3649 0L46.9931 11.667L58.6212 0L93.1721 34.6665L46.9931 81L0.813965 34.6665L35.3649 0ZM41.5123 17.166L35.3649 10.9981L11.7754 34.6665L46.9931 70.0019L50.6908 66.2918L41.5123 57.0788L46.9931 51.5836L56.1715 60.7967L59.8731 57.0827L50.6908 47.8735L56.1715 42.3745L65.3538 51.5836L70.5826 46.3374L58.6212 34.3321L46.9931 45.999L29.8842 28.833L41.5123 17.166ZM76.0633 40.8345L82.2107 34.6665L58.6212 10.9981L40.8457 28.833L46.9931 35.001L58.6212 23.334L76.0633 40.8345Z" fill="#EB1EDA"/>
</svg>
